<?xml version="1.0" encoding="UTF-8" standalone="no"?>
<!-- Created with Inkscape (http://www.inkscape.org/) -->

<svg
   version="1.1"
   id="svg1"
   width="456.21332"
   height="95.559998"
   viewBox="0 0 456.21332 95.559998"
   sodipodi:docname="griffon_logo.eps"
   xmlns:inkscape="http://www.inkscape.org/namespaces/inkscape"
   xmlns:sodipodi="http://sodipodi.sourceforge.net/DTD/sodipodi-0.dtd"
   xmlns="http://www.w3.org/2000/svg"
   xmlns:svg="http://www.w3.org/2000/svg">
  <defs
     id="defs1" />
  <sodipodi:namedview
     id="namedview1"
     pagecolor="#ffffff"
     bordercolor="#000000"
     borderopacity="0.25"
     inkscape:showpageshadow="2"
     inkscape:pageopacity="0.0"
     inkscape:pagecheckerboard="0"
     inkscape:deskcolor="#d1d1d1">
    <inkscape:page
       x="0"
       y="0"
       inkscape:label="1"
       id="page1"
       width="456.21332"
       height="95.559998"
       margin="0"
       bleed="0" />
  </sodipodi:namedview>
  <g
     id="g1"
     inkscape:groupmode="layer"
     inkscape:label="1">
    <path
       id="path1"
       d="m 1519.87,169.629 c -7.65,-8.359 -14.57,-14.121 -18.83,-13.699 -20.86,2.031 -26.4,-8.469 -30.29,-13.371 -3.39,-4.278 -10.71,-5.645 -22.42,-4.278 -17.73,2.051 4.32,-9.871 2.92,-9.511 0.63,-2.52 8.79,-6.786 24.9,-5.418 11.3,0.945 20.49,1.347 38.08,13.562 6.39,4.473 1.44,2.715 33.66,4.074 21.51,0.907 21.07,0.164 29.29,-9.504 0,0 27.37,-5.73 30.75,-1.347 3.31,4.328 -17.01,16.359 -21.96,20.351 -7.04,5.735 -14.64,18.996 -14.64,18.996"
       style="fill:#1c4e9d;fill-opacity:1;fill-rule:nonzero;stroke:none"
       transform="matrix(0.13333333,0,0,-0.13333333,0,95.56)" />
    <path
       id="path2"
       d="m 1564.14,157.246 c 15.77,32.871 33.02,49.766 53.86,82.774 15.77,24.96 44.66,43.339 44.66,43.339 0,0 40.13,-8.691 58.88,-9.199 18.73,-0.508 68.38,19.785 68.38,19.785 0,0 0.18,-10.683 -2.07,-40.918 -0.88,-11.445 15.56,-20.273 16.85,-51.894 0.51,-12.168 -2.88,-24.492 -2.88,-24.492 l -0.86,-7.168 c 0,0 -7.23,-1.7 -42.01,-4.59 -26.04,-2.207 -29.63,-29.531 -29.63,-29.531 0,0 42.75,-2.012 50.48,-1.348 7.68,0.625 53.61,7.187 53.61,7.187 0,0 6.13,16.153 10.62,31.524 1.45,5.039 2.78,10 3.64,14.277 3.32,17.246 -3.09,46.25 -3.09,46.25 0,0 0.43,15.879 18.36,38.477 17.93,22.636 48.36,27.539 48.36,27.539 0,0 23.36,-43.906 47.38,-63.379 24.03,-19.414 42.93,-17.988 45.47,-25.781 2.5,-7.774 3.28,-37.637 3.28,-37.637 0,0 -0.15,-0.059 -0.58,-0.195 -6.33,-0.801 -16.33,-1.875 -32.58,-3.203 -26.02,-2.227 -29.65,-29.512 -29.65,-29.512 0,0 42.77,-2.051 50.51,-1.387 7.69,0.625 49.61,8.516 49.61,8.516 0,0 11.17,49.238 8.63,62.304 -2.54,13.067 -42.19,45.625 -49.14,58.848 -6.92,13.203 -9.06,34.902 -9.06,34.902 0,0 33.79,-31.191 62.96,-19.023 29.22,12.187 29.89,41.984 27.27,50.703 -10.9,35.84 -97.46,134.758 -52.19,147.707 24.26,6.922 24.42,-7.863 24.42,-7.863 0,0 -5.2,-30.195 4.41,-47.774 9.65,-17.597 8.17,-18.972 13.91,-19.129 5.78,-0.175 25.47,33.934 13.4,67.461 -12.07,33.504 -54.14,26.024 -54.14,26.024 0,0 -44.93,-6.004 -33.25,-53.934 8.21,-33.703 42.62,-76.269 42.62,-76.269 0,0 37.58,-51.477 6.88,-66.543 -30.67,-15.031 -52.31,40.398 -52.31,40.398 0,0 -17.46,48.098 -35.62,68.821 -8.79,9.988 -28.48,15.546 -46.45,18.66 12.38,22.609 37.38,67.414 53.67,89.804 22.31,30.715 59.53,43.731 51.17,47.453 -3.47,1.551 -18.59,1.844 -18.59,1.844 0,0 32.58,18.547 32.58,25.129 0,3.719 -16.8,2.781 -16.8,2.781 0,0 29.14,24.348 26.99,37.207 -0.93,5.586 -23.59,-9.285 -23.59,-9.285 0,0 31.52,38.242 33.83,46.504 3.44,12.391 -24.18,-5.586 -24.18,-5.586 0,0 26.91,38.582 20.94,48.906 -2.89,4.961 -73.52,-56.203 -136.33,-78.488 -97.42,-34.551 -127.96,-37.312 -158.1,-44.832 -38.63,-9.66 -50.13,-67.695 -53.57,-105.461 -3.17,-8.261 -6.55,-14.773 -10.26,-17.722 0,0 -22.64,68.484 -29.53,75.086 -6.89,6.582 -36.48,26.027 -36.48,26.027 0,0 2.56,26.922 0,27.781 -2.54,0.871 -36.45,-17.363 -36.45,-17.363 0,0 -38.19,-1.738 -45.14,-3.465 -6.94,-1.75 -20.83,-24.289 -20.83,-24.289 l -13.87,-17.352 c 0,0 -27.79,-10.461 -48.61,-26.054 -20.81,-15.618 -6.93,-41.653 -6.93,-41.653 l 3.48,8.653 32.93,22.57 39.95,3.496 -57.29,-33 38.19,-3.476 43.41,19.101 15.59,-5.184 c 0,0 11.42,-11.671 14.94,-14.667 7.23,-6.145 5.7,-13.868 6.62,-14.649 -11.79,-30.344 -14.27,-64.797 -23.13,-70.664 -28.57,-18.945 -67.96,32.273 -67.96,32.273 0,0 -50.66,55.547 -78.81,21.016 -10.18,-12.5 -11.82,-32.84 -6.57,-31.523 9.19,2.297 20.06,11.23 21.02,11.828 0.03,-0.176 -0.03,0.164 0,0 0.07,-2.266 -1.88,-15.422 3.94,-17.082 8.85,-2.539 14.45,15.547 19.71,11.828 l 6.56,-10.52 c -0.03,-0.125 0.03,-9.082 0,-9.187 -2.77,0.058 -34.15,2.625 -33.24,-1.25 0.55,-2.414 2.83,-4.199 4.74,-6.113 0.2,-0.586 0.48,-1.184 0.92,-1.836 4,-5.996 2.49,-6.25 18.38,-5.246 15.9,0.996 26.27,7.871 26.27,7.871 0,0 15.76,-7.871 31.53,-23.641 15.76,-15.754 64.21,-42.414 64.21,-42.414 l -13.65,-44.414 -11.15,-49.746 c 0,0 -6.23,-16.895 -21.02,-36.817 -5.64,-7.558 -20.36,-20.488 -24.93,-25.879"
       style="fill:#1c4e9d;fill-opacity:1;fill-rule:nonzero;stroke:none"
       transform="matrix(0.13333333,0,0,-0.13333333,0,95.56)" />
    <path
       id="path3"
       d="m 200.789,374.348 c -13.476,16.101 -39.101,32.207 -72.293,32.207 -54.5507,0 -96.289,-32.539 -96.289,-105.481 0,-64.433 36.1524,-103.847 97.93,-103.847 18.73,0 41.406,3.593 52.578,10.507 0.332,13.125 0.664,26.289 0.664,39.766 0,15.43 -0.984,31.211 -1.649,45.02 4.278,-0.977 10.516,-1.641 15.77,-1.641 4.934,0 9.863,0.332 14.141,1.641 -0.664,-9.864 -1.321,-31.231 -1.321,-66.7 0,-8.554 0.332,-17.773 0.332,-26.64 C 191.914,192.617 152.48,183.398 126.848,183.398 48.6328,183.398 0,224.18 0,301.074 c 0,74.582 50.6055,117.637 128.496,117.637 44.363,0 68.352,-10.848 83.801,-19.063 -3.293,-5.918 -6.574,-17.089 -7.563,-25.3 h -3.945"
       style="fill:#656263;fill-opacity:1;fill-rule:nonzero;stroke:none"
       transform="matrix(0.13333333,0,0,-0.13333333,0,95.56)" />
    <path
       id="path4"
       d="m 268.164,329.328 c 0,28.262 -1.316,56.844 -2.629,85.106 12.485,-0.985 24.973,-1.641 37.461,-1.641 12.492,0 24.973,1.641 37.465,1.641 37.137,0 68.355,-12.813 68.355,-51.922 0,-42.395 -42.39,-59.473 -67.371,-62.766 16.106,-20.058 70.989,-90.683 90.039,-112.051 -6.574,0.977 -13.144,1.641 -19.714,1.641 -6.243,0 -12.817,-0.664 -19.055,-1.641 -13.145,20.039 -56.856,80.508 -85.117,109.102 h -12.493 v -23.984 c 0,-28.282 1.321,-56.875 2.629,-85.118 -5.586,0.977 -10.839,1.641 -16.101,1.641 -5.254,0 -10.512,-0.664 -16.098,-1.641 1.313,28.243 2.629,56.836 2.629,85.118 z m 26.941,-18.742 c 5.918,-1.309 13.481,-1.641 22.024,-1.641 26.941,0 62.766,11.172 62.766,50.285 0,34.5 -28.586,43.047 -50.942,43.047 -15.113,0 -24.969,-0.988 -31.875,-1.64 -0.984,-23.996 -1.973,-47.657 -1.973,-71.309 v -18.742"
       style="fill:#656263;fill-opacity:1;fill-rule:nonzero;stroke:none"
       transform="matrix(0.13333333,0,0,-0.13333333,0,95.56)" />
    <path
       id="path5"
       d="m 475.527,329.328 c 0,28.262 -1.316,56.844 -2.629,85.106 5.586,-0.985 10.84,-1.641 16.094,-1.641 5.266,0 10.52,0.656 16.106,1.641 -1.309,-28.262 -2.625,-56.844 -2.625,-85.106 v -56.515 c 0,-28.282 1.316,-56.875 2.625,-85.118 -5.586,0.977 -10.84,1.641 -16.106,1.641 -5.254,0 -10.508,-0.664 -16.094,-1.641 1.313,28.243 2.629,56.836 2.629,85.118 v 56.515"
       style="fill:#656263;fill-opacity:1;fill-rule:nonzero;stroke:none"
       transform="matrix(0.13333333,0,0,-0.13333333,0,95.56)" />
    <path
       id="path6"
       d="m 573.457,329.328 c 0,28.262 -1.316,56.844 -2.629,85.106 19.719,-0.985 39.106,-1.641 58.82,-1.641 19.715,0 39.114,0.656 62.774,1.641 -0.664,-3.282 -0.984,-6.571 -0.984,-9.852 0,-3.293 0.32,-6.582 0.984,-9.863 -23.66,2.304 -70.332,4.277 -91.692,4.277 -0.332,-15.449 -0.652,-29.25 -0.652,-43.058 0,-15.118 0.32,-27.598 0.32,-41.407 28.262,0 57.512,0.657 84.79,3.293 -0.657,-3.293 -1.309,-6.574 -1.309,-9.863 0,-3.281 0.652,-6.555 1.309,-9.856 -22.012,2.305 -56.528,2.637 -84.79,2.637 v -27.929 c 0,-28.282 1.321,-56.875 2.637,-85.118 -5.586,0.977 -10.847,1.641 -16.101,1.641 -5.262,0 -10.516,-0.664 -16.106,-1.641 1.313,28.243 2.629,56.836 2.629,85.118 v 56.515"
       style="fill:#656263;fill-opacity:1;fill-rule:nonzero;stroke:none"
       transform="matrix(0.13333333,0,0,-0.13333333,0,95.56)" />
    <path
       id="path7"
       d="m 737.773,329.328 c 0,28.262 -1.32,56.844 -2.628,85.106 19.718,-0.985 39.101,-1.641 58.82,-1.641 19.719,0 39.109,0.656 62.773,1.641 -0.664,-3.282 -0.984,-6.571 -0.984,-9.852 0,-3.293 0.32,-6.582 0.984,-9.863 -23.664,2.304 -70.332,4.277 -91.687,4.277 -0.332,-15.449 -0.656,-29.25 -0.656,-43.058 0,-15.118 0.324,-27.598 0.324,-41.407 28.261,0 57.508,0.657 84.785,3.293 -0.656,-3.293 -1.313,-6.574 -1.313,-9.863 0,-3.281 0.657,-6.555 1.313,-9.856 -22.016,2.305 -56.524,2.637 -84.785,2.637 v -27.929 c 0,-28.282 1.316,-56.875 2.625,-85.118 -5.586,0.977 -10.84,1.641 -16.094,1.641 -5.266,0 -10.52,-0.664 -16.105,-1.641 1.308,28.243 2.628,56.836 2.628,85.118 v 56.515"
       style="fill:#656263;fill-opacity:1;fill-rule:nonzero;stroke:none"
       transform="matrix(0.13333333,0,0,-0.13333333,0,95.56)" />
    <path
       id="path8"
       d="m 1001.1,418.711 c 72.63,0 123.24,-43.055 123.24,-117.637 0,-74.629 -50.61,-117.676 -123.24,-117.676 -72.291,0 -122.909,43.047 -122.909,117.676 0,74.582 50.618,117.637 122.909,117.637 z m 0,-12.156 c -51.264,0 -90.702,-32.539 -90.702,-105.481 0,-72.988 39.438,-105.488 90.702,-105.488 51.6,0 91.03,32.5 91.03,105.488 0,72.942 -39.43,105.481 -91.03,105.481"
       style="fill:#656263;fill-opacity:1;fill-rule:nonzero;stroke:none"
       transform="matrix(0.13333333,0,0,-0.13333333,0,95.56)" />
    <path
       id="path9"
       d="m 1340.39,183.398 c -49.95,58.829 -109.77,121.926 -165.96,181.75 -0.33,-12.168 -0.98,-31.886 -0.98,-66.71 0,-28.282 1.32,-97.618 2.96,-110.743 -3.62,0.977 -7.56,1.641 -11.51,1.641 -3.94,0 -7.88,-0.664 -12.16,-1.641 2.63,15.43 6.91,99.571 6.91,142.942 0,41.406 0,73.281 -0.99,88.074 h 5.26 c 53.56,-58.172 126.19,-137.363 166.29,-177.773 0,58.808 0,122.89 -2.63,173.496 3.61,-0.985 7.56,-1.641 11.17,-1.641 3.61,0 6.89,0.656 10.52,1.641 -1.98,-19.383 -5.27,-84.454 -5.27,-110.086 0,-33.528 0.67,-106.145 0.99,-120.95 h -4.6"
       style="fill:#656263;fill-opacity:1;fill-rule:nonzero;stroke:none"
       transform="matrix(0.13333333,0,0,-0.13333333,0,95.56)" />
    <path
       id="path10"
       d="m 2161.03,231.406 c 7.22,-15.468 23.63,-34.179 51.91,-34.179 29.26,0 46.99,21.367 46.99,47.656 0,60.441 -103.51,34.492 -103.51,111.719 0,36.476 27.61,62.109 71.32,62.109 20.71,0 35.47,-4.93 48.64,-15.449 -3.95,-7.559 -6.25,-15.117 -8.87,-27.606 h -3.95 c -4.6,12.157 -14.49,30.899 -39.14,30.899 -24.64,0 -42.38,-16.77 -42.38,-40.754 0,-61.453 103.52,-35.821 103.52,-108.457 0,-40.078 -29.89,-73.946 -80.51,-73.946 -27.27,0 -42.74,9.532 -54.22,18.75 3.95,10.196 4.92,16.758 6.25,29.258 h 3.95"
       style="fill:#656263;fill-opacity:1;fill-rule:nonzero;stroke:none"
       transform="matrix(0.13333333,0,0,-0.13333333,0,95.56)" />
    <path
       id="path11"
       d="m 2296.61,414.434 c 5.9,-0.985 12.15,-1.641 18.05,-1.641 5.94,0 12.19,0.656 18.08,1.641 19.07,-37.461 39.77,-74.598 62.47,-113.692 20.35,31.867 44.33,76.231 62.1,113.692 4.26,-0.985 8.52,-1.641 12.82,-1.641 4.25,0 8.51,0.656 12.81,1.641 -41.76,-64.082 -65.39,-102.196 -79.53,-129.805 0,-32.207 0.97,-76.582 2.62,-96.934 -5.59,0.977 -10.82,1.641 -16.1,1.641 -5.27,0 -10.51,-0.664 -16.09,-1.641 2.62,23.321 2.62,58.164 2.62,93.321 -13.13,22.668 -66.06,112.714 -79.85,133.418"
       style="fill:#656263;fill-opacity:1;fill-rule:nonzero;stroke:none"
       transform="matrix(0.13333333,0,0,-0.13333333,0,95.56)" />
    <path
       id="path12"
       d="m 2493.53,231.406 c 7.22,-15.468 23.67,-34.179 51.91,-34.179 29.26,0 47.03,21.367 47.03,47.656 0,60.441 -103.55,34.492 -103.55,111.719 0,36.476 27.61,62.109 71.32,62.109 20.71,0 35.51,-4.93 48.64,-15.449 -3.95,-7.559 -6.25,-15.117 -8.87,-27.606 h -3.95 c -4.6,12.157 -14.45,30.899 -39.1,30.899 -24.65,0 -42.38,-16.77 -42.38,-40.754 0,-61.453 103.52,-35.821 103.52,-108.457 0,-40.078 -29.93,-73.946 -80.51,-73.946 -27.31,0 -42.74,9.532 -54.26,18.75 3.95,10.196 4.96,16.758 6.25,29.258 h 3.95"
       style="fill:#656263;fill-opacity:1;fill-rule:nonzero;stroke:none"
       transform="matrix(0.13333333,0,0,-0.13333333,0,95.56)" />
    <path
       id="path13"
       d="m 2710.75,329.328 c 0,22.664 -0.31,45.34 -0.97,68.016 -22.7,0 -51.92,-1.309 -70.32,-3.614 0.98,3.293 1.64,6.907 1.64,10.52 0,3.281 -0.66,6.57 -1.64,10.184 28.25,-0.985 56.53,-1.641 84.77,-1.641 28.28,0 56.52,0.656 84.8,1.641 -1.01,-3.614 -1.64,-6.903 -1.64,-10.516 0,-3.281 0.63,-6.895 1.64,-10.188 -18.43,2.305 -47.65,3.614 -70.35,3.614 -0.66,-22.676 -0.97,-45.352 -0.97,-68.016 v -56.515 c 0,-28.282 1.32,-56.875 2.61,-85.118 -5.58,0.977 -10.82,1.641 -16.09,1.641 -5.27,0 -10.51,-0.664 -16.1,-1.641 1.33,28.243 2.62,56.836 2.62,85.118 v 56.515"
       style="fill:#656263;fill-opacity:1;fill-rule:nonzero;stroke:none"
       transform="matrix(0.13333333,0,0,-0.13333333,0,95.56)" />
    <path
       id="path14"
       d="m 2847.78,329.648 c 0,28.262 -1.29,56.856 -2.61,84.786 19.72,-0.985 39.1,-1.641 58.82,-1.641 19.73,0 39.11,0.656 58.48,1.641 -0.62,-3.282 -0.98,-6.571 -0.98,-9.852 0,-3.293 0.36,-6.582 0.98,-9.863 -27.58,1.972 -43.67,4.277 -86.41,4.277 -0.35,-14.133 -1.32,-25.637 -1.32,-41.738 0,-17.09 0.35,-35.168 0.35,-43.379 38.75,0 60.47,1.641 79.84,3.281 -0.66,-3.281 -0.97,-6.894 -0.97,-10.176 0,-3.3 0.31,-6.574 0.97,-9.855 -22.69,2.305 -64.1,2.949 -79.84,2.949 -0.35,-7.89 -0.35,-16.094 -0.35,-47.656 0,-24.961 0.35,-41.094 0.66,-49.297 29.26,0 68.05,0.352 88.71,4.258 -0.62,-2.93 -0.98,-7.227 -0.98,-10.156 0,-2.969 0.36,-6.602 0.98,-9.532 -19.37,0.977 -39.1,1.641 -59.14,1.641 -20.04,0 -39.76,-0.664 -59.8,-1.641 1.32,28.594 2.61,57.188 2.61,85.43 v 56.523"
       style="fill:#656263;fill-opacity:1;fill-rule:nonzero;stroke:none"
       transform="matrix(0.13333333,0,0,-0.13333333,0,95.56)" />
    <path
       id="path15"
       d="m 3033.13,418.711 c 29.93,-61.785 60.83,-119.609 94.34,-181.094 13.13,25.664 65.39,120.293 97.58,181.094 h 4.3 c 9.84,-84.129 16.4,-155.781 26.95,-231.016 -5.27,0.977 -10.2,1.641 -15.47,1.641 -5.23,0 -10.2,-0.664 -15.43,-1.641 -4.61,58.828 -9.22,113.379 -16.09,169.563 h -0.67 c -29.92,-54.875 -60.15,-108.781 -86.09,-167.922 h -2.97 c -25.62,54.531 -55.86,111.074 -84.45,167.922 h -0.67 c -6.25,-54.219 -15.47,-132.453 -15.78,-169.563 -3.94,0.977 -7.54,1.641 -11.48,1.641 -3.95,0 -7.58,-0.664 -11.53,-1.641 11.53,72.618 24.65,161.348 31.88,231.016 h 5.58"
       style="fill:#656263;fill-opacity:1;fill-rule:nonzero;stroke:none"
       transform="matrix(0.13333333,0,0,-0.13333333,0,95.56)" />
    <path
       id="path16"
       d="m 3297.04,231.406 c 7.23,-15.468 23.63,-34.179 51.92,-34.179 29.25,0 46.99,21.367 46.99,47.656 0,60.441 -103.52,34.492 -103.52,111.719 0,36.476 27.62,62.109 71.33,62.109 20.7,0 35.47,-4.93 48.63,-15.449 -3.94,-7.559 -6.25,-15.117 -8.86,-27.606 h -3.95 c -4.61,12.157 -14.49,30.899 -39.14,30.899 -24.65,0 -42.38,-16.77 -42.38,-40.754 0,-61.453 103.51,-35.821 103.51,-108.457 0,-40.078 -29.88,-73.946 -80.51,-73.946 -27.26,0 -42.73,9.532 -54.21,18.75 3.94,10.196 4.92,16.758 6.25,29.258 h 3.94"
       style="fill:#656263;fill-opacity:1;fill-rule:nonzero;stroke:none"
       transform="matrix(0.13333333,0,0,-0.13333333,0,95.56)" />
    <path
       id="path17"
       d="m 1788.36,290.566 c 0,0 28.6,18.43 50.79,21.594 22.23,3.164 69.3,-6.926 69.3,-6.926 0,0 -45.78,2.473 -66.76,0.567 -20.94,-1.903 -55.87,-17.774 -55.87,-17.774 l 2.54,2.539"
       style="fill:#ffffff;fill-opacity:1;fill-rule:nonzero;stroke:none"
       transform="matrix(0.13333333,0,0,-0.13333333,0,95.56)" />
    <path
       id="path18"
       d="M 39.4531,20 H 3402.04"
       style="fill:none;stroke:#1c4e9d;stroke-width:40;stroke-linecap:butt;stroke-linejoin:miter;stroke-miterlimit:4;stroke-dasharray:none;stroke-opacity:1"
       transform="matrix(0.13333333,0,0,-0.13333333,0,95.56)" />
  </g>
</svg>
